<svg xmlns="http://www.w3.org/2000/svg" width="410" height="185" fill="none" xmlns:v="https://vecta.io/nano"><g filter="url(#A)"><rect x="1" y="1" width="400" height="175" rx="12" fill="#db3838"/></g><path d="M83.239 151.312c-1.656 0-3.232-.312-4.731-.937s-2.874-1.51-4.116-2.656L24.57 97.563a14.04 14.04 0 0 1-2.639-4.144A12.39 12.39 0 0 1 21 88.656a13 13 0 0 1 .931-4.844c.621-1.563 1.5-2.917 2.639-4.062l49.822-50.156c1.242-1.25 2.614-2.162 4.116-2.737S81.583 26 83.239 26a13.83 13.83 0 0 1 4.811.856c1.552.575 2.897 1.487 4.035 2.737l49.822 50.156a10.25 10.25 0 0 1 2.72 4.063 14.09 14.09 0 0 1 .85 4.844c0 1.667-.283 3.254-.85 4.763s-1.478 2.894-2.72 4.144l-49.822 50.156c-1.138 1.146-2.483 2.031-4.035 2.656s-3.156.937-4.811.937zm-2.838-15.356a4 4 0 0 0 5.676 0l44.184-44.481a4 4 0 0 0 0-5.638l-44.184-44.48a4 4 0 0 0-5.676 0l-44.184 44.48a4 4 0 0 0 0 5.638l44.184 44.481zm-3.371-45.05a4 4 0 0 0 4 4h4.417a4 4 0 0 0 4-4v-29.5a4 4 0 0 0-4-4H81.03a4 4 0 0 0-4 4v29.5zm6.208 22.75c1.759 0 3.235-.6 4.427-1.8s1.782-2.679 1.782-4.45-.594-3.256-1.782-4.456-2.667-1.794-4.427-1.794-3.232.598-4.42 1.794-1.788 2.685-1.788 4.456.596 3.254 1.788 4.45 2.661 1.8 4.42 1.8zM180.547 61l-4.35-14.88h2.52l3.15 11.67 3.48-11.67h2.85l3.51 11.67 3.12-11.67h2.55L193.027 61h-2.58l-3.66-12.27-3.66 12.27h-2.58zm24.04.36c-1.24 0-2.27-.21-3.09-.63s-1.43-.98-1.83-1.68-.6-1.46-.6-2.28c0-1.52.58-2.69 1.74-3.51s2.74-1.23 4.74-1.23h4.02v-.18c0-1.3-.34-2.28-1.02-2.94-.68-.68-1.59-1.02-2.73-1.02-.98 0-1.83.25-2.55.75-.7.48-1.14 1.19-1.32 2.13h-2.58c.1-1.08.46-1.99 1.08-2.73.64-.74 1.43-1.3 2.37-1.68a7.58 7.58 0 0 1 3-.6c2.08 0 3.64.56 4.68 1.68 1.06 1.1 1.59 2.57 1.59 4.41V61h-2.25l-.15-2.67c-.42.84-1.04 1.56-1.86 2.16-.8.58-1.88.87-3.24.87zm.39-2.13c.96 0 1.78-.25 2.46-.75a4.74 4.74 0 0 0 1.59-1.95c.36-.8.54-1.64.54-2.52v-.03h-3.81c-1.48 0-2.53.26-3.15.78-.6.5-.9 1.13-.9 1.89 0 .78.28 1.41.84 1.89.58.46 1.39.69 2.43.69zm10.89 1.77V46.12h2.28l.21 2.85c.46-.98 1.16-1.76 2.1-2.34s2.1-.87 3.48-.87v2.64h-.69c-.88 0-1.69.16-2.43.48-.74.3-1.33.82-1.77 1.56s-.66 1.76-.66 3.06V61h-2.52zm10.899 0V46.12h2.28l.15 2.67c.48-.94 1.17-1.68 2.07-2.22s1.92-.81 3.06-.81c1.76 0 3.16.54 4.2 1.62 1.06 1.06 1.59 2.7 1.59 4.92V61h-2.52v-8.43c0-3.1-1.28-4.65-3.84-4.65a4.17 4.17 0 0 0-3.21 1.41c-.84.92-1.26 2.24-1.26 3.96V61h-2.52zm18.698-18.18c-.5 0-.92-.16-1.26-.48-.32-.34-.48-.76-.48-1.26 0-.48.16-.88.48-1.2.34-.32.76-.48 1.26-.48a1.73 1.73 0 0 1 1.23.48 1.58 1.58 0 0 1 .51 1.2 1.71 1.71 0 0 1-.51 1.26 1.73 1.73 0 0 1-1.23.48zM244.204 61V46.12h2.52V61h-2.52zm6.908 0V46.12h2.28l.15 2.67c.48-.94 1.17-1.68 2.07-2.22s1.92-.81 3.06-.81c1.76 0 3.16.54 4.2 1.62 1.06 1.06 1.59 2.7 1.59 4.92V61h-2.52v-8.43c0-3.1-1.28-4.65-3.84-4.65a4.17 4.17 0 0 0-3.21 1.41c-.84.92-1.26 2.24-1.26 3.96V61h-2.52zm23.048-4.68c-.84 0-1.61-.11-2.31-.33l-1.5 1.41c.22.16.49.3.81.42.34.1.82.2 1.44.3l2.61.27c2 .14 3.43.6 4.29 1.38s1.29 1.8 1.29 3.06c0 .86-.24 1.68-.72 2.46-.46.78-1.18 1.42-2.16 1.92-.96.5-2.2.75-3.72.75-1.34 0-2.53-.18-3.57-.54-1.04-.34-1.85-.87-2.43-1.59-.58-.7-.87-1.59-.87-2.67 0-.56.15-1.17.45-1.83.3-.64.86-1.25 1.68-1.83-.44-.18-.82-.37-1.14-.57-.3-.22-.58-.46-.84-.72v-.69l2.55-2.52c-1.18-1-1.77-2.32-1.77-3.96 0-.98.23-1.87.69-2.67s1.13-1.43 2.01-1.89c.88-.48 1.95-.72 3.21-.72.86 0 1.64.12 2.34.36h5.49v1.89l-2.79.12c.58.84.87 1.81.87 2.91 0 .98-.24 1.87-.72 2.67-.46.8-1.13 1.44-2.01 1.92-.86.46-1.92.69-3.18.69zm0-2.07c1.06 0 1.9-.27 2.52-.81.64-.56.96-1.36.96-2.4 0-1.02-.32-1.8-.96-2.34-.62-.56-1.46-.84-2.52-.84-1.08 0-1.94.28-2.58.84-.62.54-.93 1.32-.93 2.34 0 1.04.31 1.84.93 2.4.64.54 1.5.81 2.58.81zm-4.38 8.67c0 1 .42 1.74 1.26 2.22.84.5 1.89.75 3.15.75 1.24 0 2.23-.27 2.97-.81.76-.54 1.14-1.26 1.14-2.16 0-.64-.26-1.2-.78-1.68-.52-.46-1.48-.73-2.88-.81l-2.85-.3c-.82.44-1.36.91-1.62 1.41-.26.52-.39.98-.39 1.38zm17.116-1.75a1.84 1.84 0 0 1-1.353-.565c-.376-.377-.565-.827-.565-1.353a1.84 1.84 0 0 1 .565-1.353c.377-.376.827-.565 1.353-.565s.976.188 1.353.565a1.84 1.84 0 0 1 .564 1.353 1.8 1.8 0 0 1-.266.959c-.17.291-.401.526-.692.703a1.83 1.83 0 0 1-.959.256zm0-12.145a1.84 1.84 0 0 1-1.353-.565c-.376-.377-.565-.827-.565-1.353a1.84 1.84 0 0 1 .565-1.353c.377-.376.827-.565 1.353-.565s.976.188 1.353.565a1.84 1.84 0 0 1 .564 1.353c0 .348-.088.668-.266.959-.17.291-.401.526-.692.703a1.83 1.83 0 0 1-.959.256zM175.52 97l3.622-21.818h9.46c1.662 0 3.022.224 4.08.671 1.066.447 1.819 1.08 2.259 1.896.447.817.579 1.779.394 2.887a5.35 5.35 0 0 1-.916 2.184c-.462.653-1.048 1.207-1.758 1.662-.703.447-1.488.756-2.354.927l-.043.213c.938.028 1.754.263 2.45.703.696.433 1.208 1.037 1.534 1.811.327.767.405 1.662.235 2.685a6.59 6.59 0 0 1-1.46 3.185c-.774.93-1.779 1.662-3.015 2.195s-2.642.799-4.218.799h-10.27zm6.733-4.73h2.77c.98 0 1.75-.188 2.311-.565.569-.376.906-.927 1.012-1.651.086-.511.043-.945-.127-1.3s-.459-.625-.863-.81-.913-.277-1.524-.277h-2.855l-.724 4.602zm1.363-8.267h2.429a3.91 3.91 0 0 0 1.407-.245 2.63 2.63 0 0 0 1.054-.714 2.19 2.19 0 0 0 .522-1.129c.107-.682-.057-1.2-.49-1.555-.426-.355-1.001-.533-1.726-.533h-2.514l-.682 4.176zM195.559 97l3.622-21.818h9.418c1.619 0 2.986.295 4.101.884s1.918 1.438 2.408 2.546.607 2.436.351 3.984c-.255 1.563-.82 2.88-1.694 3.952-.866 1.065-1.97 1.875-3.313 2.429-1.335.547-2.834.82-4.496.82h-5.625l.768-4.602h4.431c.696 0 1.307-.085 1.833-.256a2.86 2.86 0 0 0 1.278-.831c.327-.383.54-.888.639-1.513s.05-1.133-.149-1.523c-.199-.398-.529-.689-.991-.874-.461-.192-1.033-.288-1.715-.288h-2.088L201.482 97h-5.923zm14.446-10.014L213.797 97h-6.434l-3.665-10.014h6.307zm28.769-.511c-.397 2.372-1.186 4.361-2.365 5.966s-2.61 2.816-4.293 3.633-3.484 1.225-5.401 1.225c-2.046 0-3.821-.444-5.327-1.332s-2.603-2.187-3.292-3.899-.827-3.803-.415-6.275c.383-2.372 1.164-4.368 2.343-5.987s2.617-2.845 4.315-3.675 3.512-1.246 5.444-1.246c2.031 0 3.796.448 5.295 1.342 1.505.895 2.599 2.205 3.281 3.931.689 1.726.827 3.832.415 6.317zm-5.966-.682c.199-1.25.213-2.301.043-3.153-.17-.859-.529-1.506-1.076-1.939-.547-.44-1.282-.66-2.205-.66-1.051 0-1.982.256-2.791.767s-1.481 1.246-2.014 2.205-.905 2.113-1.119 3.462c-.227 1.264-.248 2.315-.063 3.153.191.838.568 1.467 1.129 1.886.568.419 1.307.629 2.216.629 1.037 0 1.953-.248 2.748-.746.803-.497 1.467-1.218 1.992-2.163.533-.945.913-2.092 1.14-3.441zM259.977 82c.064-.703-.106-1.254-.511-1.651-.405-.405-1.087-.607-2.046-.607-.61 0-1.122.071-1.534.213-.404.142-.721.337-.948.586-.22.249-.358.536-.415.863-.064.256-.061.49.01.703.078.206.224.394.437.565.22.17.508.323.863.458a9.34 9.34 0 0 0 1.289.362l1.705.383c1.164.256 2.141.593 2.929 1.012.796.412 1.421.902 1.875 1.47s.753 1.204.895 1.907c.149.703.153 1.47.011 2.301-.242 1.435-.799 2.649-1.673 3.644s-2.013 1.751-3.419 2.269-3.033.778-4.88.778c-1.889 0-3.494-.281-4.815-.842-1.314-.568-2.266-1.435-2.855-2.6-.583-1.172-.725-2.667-.426-4.485h5.625c-.085.668-.014 1.229.213 1.683s.593.799 1.097 1.033 1.133.352 1.886.352c.639 0 1.186-.078 1.64-.234s.814-.373 1.076-.65a1.76 1.76 0 0 0 .48-.948c.057-.327 0-.618-.171-.873s-.479-.487-.927-.692-1.061-.394-1.843-.565l-2.088-.469c-1.853-.426-3.252-1.129-4.197-2.109s-1.278-2.322-1.001-4.027a7.12 7.12 0 0 1 1.715-3.643c.923-1.044 2.095-1.854 3.515-2.429 1.428-.582 3.008-.874 4.741-.874 1.761 0 3.235.295 4.421.884 1.193.589 2.049 1.417 2.568 2.482.525 1.065.667 2.315.426 3.75h-5.668zm28.354 1.364h-5.923c.043-.504.014-.959-.085-1.364a2.57 2.57 0 0 0-.512-1.044c-.241-.298-.557-.526-.948-.682s-.856-.234-1.395-.234c-1.037 0-1.964.259-2.781.778-.817.511-1.495 1.246-2.035 2.205-.539.952-.923 2.088-1.15 3.409-.199 1.278-.206 2.34-.022 3.185.192.845.565 1.477 1.119 1.896.561.419 1.289.629 2.184.629.597 0 1.143-.071 1.641-.213.504-.142.951-.344 1.342-.607.398-.27.735-.59 1.012-.959.284-.376.501-.792.65-1.246h5.966c-.227.923-.632 1.868-1.215 2.834-.582.959-1.335 1.843-2.258 2.653-.923.803-2.01 1.452-3.26 1.95s-2.656.746-4.219.746c-2.045 0-3.81-.447-5.295-1.342-1.477-.895-2.549-2.202-3.217-3.921-.66-1.719-.792-3.814-.394-6.285.398-2.386 1.182-4.386 2.354-5.998s2.596-2.827 4.272-3.643a12.05 12.05 0 0 1 5.348-1.225c1.428 0 2.706.188 3.836.565 1.136.376 2.091.927 2.865 1.651.782.717 1.357 1.602 1.726 2.653s.501 2.255.394 3.612zm9.996-8.182L294.705 97h-5.924l3.623-21.818h5.923zM297.512 97l3.622-21.818h15.724l-.809 4.773h-9.801l-.597 3.75h8.992l-.81 4.773h-8.992l-.596 3.75h9.758L313.194 97h-15.682zm41.162-21.818L335.052 97h-4.943l-5.966-11.463h-.128L322.097 97h-5.923l3.622-21.818h5.029l5.88 11.421h.171l1.875-11.421h5.923zm21.786 8.182h-5.923c.043-.504.014-.959-.085-1.364a2.57 2.57 0 0 0-.512-1.044c-.241-.298-.557-.526-.948-.682s-.856-.234-1.395-.234c-1.037 0-1.964.259-2.781.778-.817.511-1.495 1.246-2.035 2.205-.54.952-.923 2.088-1.15 3.409-.199 1.278-.206 2.34-.022 3.185.192.845.565 1.477 1.119 1.896.561.419 1.289.629 2.184.629.597 0 1.143-.071 1.641-.213.504-.142.951-.344 1.342-.607.398-.27.735-.59 1.012-.959.284-.376.501-.792.65-1.246h5.966c-.228.923-.632 1.868-1.215 2.834-.582.959-1.335 1.843-2.258 2.653-.924.803-2.01 1.452-3.26 1.95s-2.656.746-4.219.746c-2.045 0-3.81-.447-5.295-1.342-1.477-.895-2.549-2.202-3.217-3.921-.661-1.719-.792-3.814-.394-6.285.397-2.386 1.182-4.386 2.354-5.998s2.596-2.827 4.272-3.643a12.05 12.05 0 0 1 5.348-1.225c1.428 0 2.706.188 3.835.565 1.137.376 2.092.927 2.866 1.651.781.717 1.357 1.602 1.726 2.653s.501 2.255.394 3.612zM360.91 97l3.622-21.818h15.725l-.81 4.773h-9.801l-.596 3.75h8.991l-.81 4.773h-8.991l-.597 3.75h9.759l-.81 4.773H360.91zm-178.413 39.36c-1.24 0-2.27-.21-3.09-.63s-1.43-.98-1.83-1.68-.6-1.46-.6-2.28c0-1.52.58-2.69 1.74-3.51s2.74-1.23 4.74-1.23h4.02v-.18c0-1.3-.34-2.28-1.02-2.94-.68-.68-1.59-1.02-2.73-1.02-.98 0-1.83.25-2.55.75-.7.48-1.14 1.19-1.32 2.13h-2.58c.1-1.08.46-1.99 1.08-2.73.64-.74 1.43-1.3 2.37-1.68a7.58 7.58 0 0 1 3-.6c2.08 0 3.64.56 4.68 1.68 1.06 1.1 1.59 2.57 1.59 4.41V136h-2.25l-.15-2.67c-.42.84-1.04 1.56-1.86 2.16-.8.58-1.88.87-3.24.87zm.39-2.13c.96 0 1.78-.25 2.46-.75a4.74 4.74 0 0 0 1.59-1.95c.36-.8.54-1.64.54-2.52v-.03h-3.81c-1.48 0-2.53.26-3.15.78-.6.5-.9 1.13-.9 1.89 0 .78.28 1.41.84 1.89.58.46 1.39.69 2.43.69zm10.891 1.77v-21.6h2.52v9.27c.5-.92 1.21-1.63 2.13-2.13.92-.52 1.92-.78 3-.78 1.72 0 3.1.54 4.14 1.62 1.04 1.06 1.56 2.7 1.56 4.92v8.7h-2.49v-8.43c0-3.1-1.25-4.65-3.75-4.65-1.3 0-2.39.47-3.27 1.41-.88.92-1.32 2.24-1.32 3.96V136h-2.52zm23.858.36c-1.42 0-2.68-.32-3.78-.96-1.1-.66-1.97-1.57-2.61-2.73-.62-1.16-.93-2.53-.93-4.11 0-1.56.31-2.92.93-4.08.62-1.18 1.48-2.09 2.58-2.73 1.12-.66 2.41-.99 3.87-.99 1.44 0 2.68.33 3.72.99 1.06.64 1.87 1.49 2.43 2.55a7.21 7.21 0 0 1 .84 3.42l-.03.66v.75h-11.85c.06 1.14.32 2.09.78 2.85.48.74 1.07 1.3 1.77 1.68.72.38 1.48.57 2.28.57 1.04 0 1.91-.24 2.61-.72s1.21-1.13 1.53-1.95h2.49a6.76 6.76 0 0 1-2.31 3.45c-1.12.9-2.56 1.35-4.32 1.35zm0-13.47a5.05 5.05 0 0 0-3.21 1.11c-.92.72-1.45 1.78-1.59 3.18h9.36c-.06-1.34-.52-2.39-1.38-3.15s-1.92-1.14-3.18-1.14zm15.34 13.47c-1.24 0-2.27-.21-3.09-.63s-1.43-.98-1.83-1.68-.6-1.46-.6-2.28c0-1.52.58-2.69 1.74-3.51s2.74-1.23 4.74-1.23h4.02v-.18c0-1.3-.34-2.28-1.02-2.94-.68-.68-1.59-1.02-2.73-1.02-.98 0-1.83.25-2.55.75-.7.48-1.14 1.19-1.32 2.13h-2.58c.1-1.08.46-1.99 1.08-2.73.64-.74 1.43-1.3 2.37-1.68a7.58 7.58 0 0 1 3-.6c2.08 0 3.64.56 4.68 1.68 1.06 1.1 1.59 2.57 1.59 4.41V136h-2.25l-.15-2.67c-.42.84-1.04 1.56-1.86 2.16-.8.58-1.88.87-3.24.87zm.39-2.13c.96 0 1.78-.25 2.46-.75a4.74 4.74 0 0 0 1.59-1.95c.36-.8.54-1.64.54-2.52v-.03h-3.81c-1.48 0-2.53.26-3.15.78-.6.5-.9 1.13-.9 1.89 0 .78.28 1.41.84 1.89.58.46 1.39.69 2.43.69zm17.64 2.13c-1.48 0-2.78-.34-3.9-1.02-1.1-.68-1.96-1.61-2.58-2.79-.6-1.18-.9-2.52-.9-4.02s.31-2.83.93-3.99c.62-1.18 1.48-2.1 2.58-2.76 1.1-.68 2.4-1.02 3.9-1.02 1.22 0 2.3.25 3.24.75s1.67 1.2 2.19 2.1v-9.21h2.52V136h-2.28l-.24-2.46c-.48.72-1.17 1.37-2.07 1.95s-2.03.87-3.39.87zm.27-2.19c1 0 1.88-.23 2.64-.69.78-.48 1.38-1.14 1.8-1.98.44-.84.66-1.82.66-2.94s-.22-2.1-.66-2.94c-.42-.84-1.02-1.49-1.8-1.95-.76-.48-1.64-.72-2.64-.72-.98 0-1.86.24-2.64.72-.76.46-1.36 1.11-1.8 1.95-.42.84-.63 1.82-.63 2.94s.21 2.1.63 2.94c.44.84 1.04 1.5 1.8 1.98.78.46 1.66.69 2.64.69zm-75.799-31.204h204.055v2.045H175.477v-2.045z" fill="#fff"/><defs><filter id="A" x="0" y="0" width="410" height="185" filterUnits="userSpaceOnUse" color-interpolation-filters="sRGB"><feFlood flood-opacity="0" result="A"/><feColorMatrix in="SourceAlpha" values="0 0 0 0 0 0 0 0 0 0 0 0 0 0 0 0 0 0 127 0" result="B"/><feMorphology radius="1" operator="dilate" in="SourceAlpha"/><feOffset dx="4" dy="4"/><feGaussianBlur stdDeviation="2"/><feComposite in2="B" operator="out"/><feColorMatrix values="0 0 0 0 0 0 0 0 0 0 0 0 0 0 0 0 0 0 0.25 0"/><feBlend in2="A"/><feBlend in="SourceGraphic"/></filter></defs></svg>